<svg xmlns="http://www.w3.org/2000/svg" viewBox="0 0 384.97 384.97" style="enable-background:new 0 0 384.97 384.97" xml:space="preserve"><path d="m144.123 84.092 228.576.241c6.641 0 12.03-5.39 12.03-12.03 0-6.641-5.39-12.03-12.03-12.03l-228.576-.241c-6.641 0-12.03 5.39-12.03 12.03s5.389 12.03 12.03 12.03zm228.816 96.363-228.576-.241c-6.641 0-12.03 5.39-12.03 12.03 0 6.641 5.39 12.03 12.03 12.03l228.576.241c6.641 0 12.03-5.39 12.03-12.03s-5.389-12.03-12.03-12.03zm0 120.303-228.576-.241c-6.641 0-12.03 5.39-12.03 12.03s5.39 12.03 12.03 12.03l228.576.241c6.641 0 12.03-5.39 12.03-12.03.001-6.641-5.389-12.03-12.03-12.03zM48.001 24.301C21.486 24.301 0 45.787 0 72.302s21.486 48.001 48.001 48.001 48.001-21.486 48.001-48.001-21.486-48.001-48.001-48.001zm-.12 72.062c-13.522 0-24.361-10.539-24.361-24.061s10.839-24.061 24.361-24.061 24.06 10.539 24.06 24.061-10.538 24.061-24.06 24.061zm.12 48.241C21.486 144.604 0 166.09 0 192.605s21.486 48.001 48.001 48.001 48.001-21.486 48.001-48.001-21.486-48.001-48.001-48.001zm-.12 72.062c-13.522 0-24.361-10.539-24.361-24.061s10.839-24.061 24.361-24.061 24.061 10.539 24.061 24.061c-.001 13.522-10.539 24.061-24.061 24.061zm.12 48.001C21.486 264.667 0 286.153 0 312.668s21.486 48.001 48.001 48.001 48.001-21.486 48.001-48.001-21.486-48.001-48.001-48.001zm-.12 72.061c-13.522 0-24.361-10.539-24.361-24.061s10.839-24.061 24.361-24.061 24.061 10.539 24.061 24.061-10.539 24.061-24.061 24.061z"/><g/><g/><g/><g/><g/><g/></svg>